<?xml version="1.0" encoding="UTF-8"?>
<svg xmlns="http://www.w3.org/2000/svg" width="500" height="120" viewBox="9 25 439 99">
  <defs>
    <linearGradient id="textGradient" x1="0%" y1="0%" x2="0%" y2="100%">
      <stop offset="0%" style="stop-color:#905e26;stop-opacity:1"/>
      <stop offset="50%" style="stop-color:#f5ec9b;stop-opacity:1"/>
      <stop offset="100%" style="stop-color:#905e26;stop-opacity:1"/>
    </linearGradient>
  </defs>

  <!-- Logo icon -->
  <g transform="translate(10, 25)">
    <rect width="100" height="99.091" fill="#26a800" stroke="#26a800" rx="9.091" ry="9.174"/>
    <path fill="#fff" stroke="#fff" stroke-width="1.0042398" d="M80.53 43.38c.57 2.4.77 4.83.75 7.21-.06 4.78-1.19 9.4-3.21 13.62a30 30 0 0 1-8.9 10.92 30 30 0 0 1-6.18 3.51 32 32 0 0 1-6.63 1.87q-3.38.52-6.76.31a31 31 0 0 1-6.64-1.2 26.5 26.5 0 0 1-15.63-12.39 27 27 0 0 1-2.56-6 27 27 0 0 1-1.12-6.38c-.1-1.07-.03-2.16 0-3.24l.16-1.68q-1.06-.26-1.97-.7a6 6 0 0 1-2.58-2.12 3.4 3.4 0 0 1-.42-2.77c.2-.74.45-1.4.7-2.1l.37-1.04.42-.94.88-1.86.98-1.69.5-.83.53-.78 1.08-1.53c.77-.95 1.52-1.92 2.34-2.8a37 37 0 0 1 2.55-2.52c.86-.82 1.8-1.56 2.74-2.3.93-.73 1.97-1.39 2.97-2.06 1.1-.62 2.1-1.27 3.3-1.8a30 30 0 0 1 7.78-2.59q1.15-.18 2.29-.3c.75-.07 1.39-.06 2.08-.07q1.03-.02 2.04.07c.67.06 1.35.08 2 .2 5.3.75 10.07 2.85 14.05 5.78A32 32 0 0 1 78 36.35c1.16 2.2 2 4.63 2.54 7.03Zm-18.41 13.8c.69-1.99.96-4.17.73-6.18a11.3 11.3 0 0 0-5.95-8.92 10 10 0 0 0-4.8-1.33c-.18-.03-.35.03-.53.03q-.27 0-.5.07c-.16.03-.37.03-.46.08a1 1 0 0 1-.22.1c-.4.22-1 .43-1.72.95-1.42.9-3 2.47-4.16 4.07-1.2 1.58-1.84 3.4-1.86 4.15.06.1-.3.07-.98.07-.66-.02-1.57-.09-2.74-.06-1.07 0-2.32.07-3.66.14-.03.5-.01 1.02-.03 1.53.07.61.08 1.22.21 1.83q.3 1.84 1.03 3.55a15 15 0 0 0 4.13 5.71 13 13 0 0 0 5.98 2.74c1.1.21 2.27.25 3.4.22 1.15-.05 2.28-.26 3.37-.53q1.63-.48 3.04-1.24 1.4-.8 2.47-1.8c.7-.72 1.36-1.48 1.9-2.35.53-.9 1.02-1.81 1.35-2.82Z"/>
  </g>

  <!-- Text "outcomer" -->
  <g transform="matrix(1.902435, 0, 0, 1.902435, 132.969532, 24.649001)" fill="#26a800">
    <path d="M11.894 19.412 c5.6764 0 10.294 4.6176 10.294 10.294 s-4.6176 10.294 -10.294 10.294 s-10.294 -4.6176 -10.294 -10.294 s4.6176 -10.294 10.294 -10.294 z M11.894 35.608 c3.2543 0 5.902 -2.6476 5.902 -5.902 s-2.6476 -5.902 -5.902 -5.902 s-5.902 2.6476 -5.902 5.902 s2.6476 5.902 5.902 5.902 z M42.526 19.412 c1.2128 0 2.196 0.98328 2.196 2.196 l0 8.098 c0 5.6764 -4.6176 10.294 -10.294 10.294 s-10.294 -4.6176 -10.294 -10.294 l0 -8.098 c0 -1.2128 0.98328 -2.196 2.196 -2.196 s2.196 0.98328 2.196 2.196 l0 8.098 c0 3.2543 2.6476 5.902 5.902 5.902 s5.902 -2.6476 5.902 -5.902 l0 -8.098 c0 -1.2128 0.98328 -2.196 2.196 -2.196 z M57.127 35.608 c1.2128 0 2.1961 0.98332 2.1961 2.1961 s-0.98328 2.196 -2.196 2.196 c-5.7668 0 -10.459 -4.692 -10.459 -10.459 l0 -15.345 c0 -1.2128 0.98328 -2.196 2.196 -2.196 s2.196 0.98328 2.196 2.196 l0 5.2217 l6.0666 0 c1.2128 0 2.196 0.98328 2.196 2.196 s-0.98328 2.196 -2.196 2.196 l-6.0666 0 l0 5.7312 c0 3.3452 2.7215 6.0668 6.0668 6.0668 z M73.75 33.8792 c0.85756 -0.85756 2.2482 -0.85772 3.1058 0.00011719 c0.85784 0.85756 0.85784 2.248 0 3.1056 c-1.9443 1.9443 -4.5292 3.0149 -7.2792 3.0149 c-5.6764 0 -10.294 -4.6176 -10.294 -10.294 s4.6176 -10.294 10.294 -10.294 c2.7498 0 5.3348 1.0706 7.2788 3.0152 c0.85784 0.85756 0.85784 2.248 0 3.1056 c-0.85756 0.85756 -2.248 0.85756 -3.1056 0 c-1.1145 -1.1148 -2.5968 -1.7286 -4.1732 -1.7286 c-3.2543 0 -5.902 2.6476 -5.902 5.902 s2.6476 5.902 5.902 5.902 c1.5765 0 3.0586 -0.6138 4.1732 -1.7286 z M88.55 19.412 c5.6764 0 10.294 4.6176 10.294 10.294 s-4.6176 10.294 -10.294 10.294 s-10.294 -4.6176 -10.294 -10.294 s4.6176 -10.294 10.294 -10.294 z M88.55 35.608 c3.2543 0 5.902 -2.6476 5.902 -5.902 s-2.6476 -5.902 -5.902 -5.902 s-5.902 2.6476 -5.902 5.902 s2.6476 5.902 5.902 5.902 z M120.339 19.412 c4.4008 0 7.9804 3.5802 7.9804 7.9804 l0 10.412 c0 1.2128 -0.98328 2.196 -2.196 2.196 s-2.196 -0.98328 -2.196 -2.196 l0 -10.412 c0 -1.9784 -1.6097 -3.5881 -3.5884 -3.5881 c-1.9784 0 -3.5881 1.6094 -3.5881 3.5881 l0 10.412 c0 1.2128 -0.98328 2.196 -2.196 2.196 s-2.196 -0.98328 -2.196 -2.196 l0 -10.412 c0 -1.9784 -1.6094 -3.5881 -3.5881 -3.5881 s-3.5884 1.6094 -3.5884 3.5881 l0 10.412 c0 1.2128 -0.98328 2.196 -2.196 2.196 s-2.196 -0.98328 -2.196 -2.196 l0 -16.196 c0 -1.2128 0.98328 -2.196 2.196 -2.196 c0.78592 0 1.4736 0.4142 1.8615 1.0349 c1.1595 -0.65744 2.4978 -1.0349 3.923 -1.0349 c2.2748 0 4.3288 0.9586 5.784 2.4912 c1.4549 -1.5326 3.509 -2.4912 5.784 -2.4912 z M140.538 19.412 c5.6764 0 10.294 4.6176 10.294 10.294 c0 1.2128 -0.98328 2.196 -2.196 2.196 l-13.576 0 c0.87292 2.17 2.9995 3.7059 5.4784 3.7059 c1.5765 0 3.0586 -0.6138 4.1732 -1.7286 c0.85784 -0.85756 2.248 -0.85732 3.1058 0 c0.85784 0.85784 0.85756 2.2482 0 3.1058 c-1.9446 1.9443 -4.5296 3.0149 -7.2792 3.0149 c-5.6764 0 -10.294 -4.6176 -10.294 -10.294 s4.6176 -10.294 10.294 -10.294 z M135.0596 27.51 l10.957 0 c-0.87292 -2.17 -2.9995 -3.7059 -5.4784 -3.7059 s-4.6056 1.5359 -5.4784 3.7059 z M163.072 19.412 c1.2128 0 2.196 0.98328 2.196 2.196 s-0.98328 2.196 -2.196 2.196 c-3.2543 0 -5.902 2.6476 -5.902 5.902 l0 8.098 c0 1.2128 -0.98328 2.196 -2.196 2.196 s-2.196 -0.98328 -2.196 -2.196 l0 -16.196 c0 -1.2128 0.98328 -2.196 2.196 -2.196 c1.1071 0 2.0201 0.81996 2.1716 1.885 c1.677 -1.1856 3.721 -1.885 5.9264 -1.885 z"/>
  </g>
</svg>
