<?xml version="1.0" encoding="UTF-8"?>
<svg xmlns="http://www.w3.org/2000/svg" width="300" height="300" viewBox="-1 -1 102 102">
  <!-- Background rounded rectangle -->
  <rect width="110" height="109" fill="#26a800" stroke="#26a800" rx="10" ry="10" transform="scale(.9091 .91743)"/>

  <!-- Monogram symbol -->
  <path fill="#fff" stroke="#fff" stroke-width="1.0042398" d="M80.53 43.38c.57 2.4.77 4.83.75 7.21-.06 4.78-1.19 9.4-3.21 13.62a30 30 0 0 1-8.9 10.92 30 30 0 0 1-6.18 3.51 32 32 0 0 1-6.63 1.87q-3.38.52-6.76.31a31 31 0 0 1-6.64-1.2 26.5 26.5 0 0 1-15.63-12.39 27 27 0 0 1-2.56-6 27 27 0 0 1-1.12-6.38c-.1-1.07-.03-2.16 0-3.24l.16-1.68q-1.06-.26-1.97-.7a6 6 0 0 1-2.58-2.12 3.4 3.4 0 0 1-.42-2.77c.2-.74.45-1.4.7-2.1l.37-1.04.42-.94.88-1.86.98-1.69.5-.83.53-.78 1.08-1.53c.77-.95 1.52-1.92 2.34-2.8a37 37 0 0 1 2.55-2.52c.86-.82 1.8-1.56 2.74-2.3.93-.73 1.97-1.39 2.97-2.06 1.1-.62 2.1-1.27 3.3-1.8a30 30 0 0 1 7.78-2.59q1.15-.18 2.29-.3c.75-.07 1.39-.06 2.08-.07q1.03-.02 2.04.07c.67.06 1.35.08 2 .2 5.3.75 10.07 2.85 14.05 5.78A32 32 0 0 1 78 36.35c1.16 2.2 2 4.63 2.54 7.03Zm-18.41 13.8c.69-1.99.96-4.17.73-6.18a11.3 11.3 0 0 0-5.95-8.92 10 10 0 0 0-4.8-1.33c-.18-.03-.35.03-.53.03q-.27 0-.5.07c-.16.03-.37.03-.46.08a1 1 0 0 1-.22.1c-.4.22-1 .43-1.72.95-1.42.9-3 2.47-4.16 4.07-1.2 1.58-1.84 3.4-1.86 4.15.06.1-.3.07-.98.07-.66-.02-1.57-.09-2.74-.06-1.07 0-2.32.07-3.66.14-.03.5-.01 1.02-.03 1.53.07.61.08 1.22.21 1.83q.3 1.84 1.03 3.55a15 15 0 0 0 4.13 5.71 13 13 0 0 0 5.98 2.74c1.1.21 2.27.25 3.4.22 1.15-.05 2.28-.26 3.37-.53q1.63-.48 3.04-1.24 1.4-.8 2.47-1.8c.7-.72 1.36-1.48 1.9-2.35.53-.9 1.02-1.81 1.35-2.82Z"/>
</svg>
